<?xml version='1.0' encoding='UTF-8'?>
<svg xmlns="http://www.w3.org/2000/svg" style="enable-background:new 0 0 133.333 150;" version="1.1" viewBox="0 0 133.333 150" x="0px" y="0px" xml:space="preserve">
<g id="VuMark-ClearSpace">
	<rect height="150" style="fill:#FFFFFF;" width="133.333" />
</g>
<g id="VuMark-Border">
	<polygon points="121.152,10.334 115.462,122.034 91.792,119.534 91.712,80.594 66.672,113.724 41.632,80.594 41.552,119.534    17.882,122.024 12.182,10.334 49.842,10.334 66.672,43.854 83.492,10.334  " />
</g>
<g id="VuMark-Background">
	<polygon points="56.208,17.029 56.208,10.334 66.667,12.834  " />
	<polygon points="77.125,17.029 77.125,10.334 66.667,12.834  " />
	<g>
		<path d="M23.647,137.681c-0.036-0.954-0.071-2.108-0.071-3.263H23.54c-0.247,1.013-0.577,2.144-0.883,3.074l-0.966,3.098h-1.402    l-0.848-3.074c-0.259-0.931-0.53-2.062-0.719-3.098h-0.023c-0.047,1.071-0.083,2.297-0.141,3.286l-0.142,3.016h-1.661l0.507-7.939    h2.391l0.777,2.65c0.248,0.919,0.495,1.908,0.671,2.839h0.036c0.224-0.919,0.495-1.967,0.754-2.851l0.848-2.639h2.344l0.436,7.939    h-1.755L23.647,137.681z" />
		<path d="M34.167,136.668c0,2.604-1.578,4.183-3.899,4.183c-2.356,0-3.734-1.779-3.734-4.041c0-2.379,1.52-4.158,3.864-4.158    C32.836,132.651,34.167,134.477,34.167,136.668z M28.43,136.774c0,1.555,0.73,2.65,1.932,2.65c1.213,0,1.908-1.154,1.908-2.697    c0-1.426-0.683-2.65-1.92-2.65C29.137,134.077,28.43,135.231,28.43,136.774z" />
		<path d="M35.346,132.886c0.577-0.094,1.438-0.164,2.392-0.164c1.178,0,2.002,0.176,2.568,0.624c0.471,0.377,0.73,0.931,0.73,1.661    c0,1.013-0.719,1.708-1.402,1.955v0.035c0.554,0.224,0.86,0.754,1.06,1.484c0.248,0.896,0.495,1.932,0.648,2.238h-1.838    c-0.129-0.224-0.318-0.872-0.554-1.85c-0.212-0.989-0.553-1.26-1.284-1.272h-0.542v3.122h-1.779V132.886z M37.125,136.303h0.707    c0.895,0,1.425-0.448,1.425-1.144c0-0.729-0.495-1.095-1.319-1.106c-0.436,0-0.684,0.035-0.813,0.059V136.303z" />
		<path d="M43.863,134.289h-2.132v-1.508h6.102v1.508h-2.167v6.432h-1.803V134.289z" />
		<path d="M55.715,136.668c0,2.604-1.578,4.183-3.899,4.183c-2.356,0-3.734-1.779-3.734-4.041c0-2.379,1.52-4.158,3.864-4.158    C54.383,132.651,55.715,134.477,55.715,136.668z M49.978,136.774c0,1.555,0.73,2.65,1.932,2.65c1.213,0,1.908-1.154,1.908-2.697    c0-1.426-0.683-2.65-1.92-2.65C50.685,134.077,49.978,135.231,49.978,136.774z" />
		<path d="M56.894,140.72v-7.939h2.097l1.649,2.909c0.471,0.837,0.942,1.826,1.296,2.722h0.035    c-0.118-1.049-0.153-2.121-0.153-3.311v-2.32h1.649v7.939h-1.885l-1.696-3.063c-0.471-0.849-0.989-1.873-1.378-2.804l-0.035,0.012    c0.047,1.048,0.071,2.167,0.071,3.463v2.392H56.894z" />
		<path d="M68.475,134.289h-2.132v-1.508h6.102v1.508h-2.167v6.432h-1.803V134.289z" />
		<path d="M75.19,132.781v4.57c0,1.366,0.519,2.062,1.438,2.062c0.941,0,1.461-0.659,1.461-2.062v-4.57h1.79v4.453    c0,2.449-1.237,3.616-3.31,3.616c-2.003,0-3.182-1.107-3.182-3.641v-4.429H75.19z" />
		<path d="M85.616,140.72l-0.719-1.438c-0.294-0.554-0.482-0.966-0.707-1.425h-0.023c-0.164,0.459-0.365,0.871-0.611,1.425    l-0.66,1.438h-2.05l2.297-4.017l-2.214-3.923h2.061l0.695,1.449c0.236,0.482,0.412,0.871,0.602,1.319h0.023    c0.188-0.507,0.341-0.86,0.541-1.319l0.672-1.449h2.049l-2.237,3.875l2.356,4.064H85.616z" />
		<path d="M93.38,137.363h-2.922v1.885h3.264v1.473h-5.065v-7.939h4.9v1.473h-3.099v1.648h2.922V137.363z" />
		<path d="M94.948,132.886c0.659-0.105,1.52-0.164,2.426-0.164c1.508,0,2.486,0.271,3.252,0.848c0.824,0.612,1.343,1.59,1.343,2.992    c0,1.52-0.554,2.568-1.319,3.216c-0.836,0.695-2.109,1.024-3.664,1.024c-0.93,0-1.59-0.059-2.037-0.117V132.886z M96.75,139.366    c0.153,0.035,0.401,0.035,0.624,0.035c1.626,0.012,2.686-0.884,2.686-2.78c0.013-1.648-0.953-2.521-2.496-2.521    c-0.4,0-0.66,0.035-0.813,0.07V139.366z" />
		<path d="M110.415,136.668c0,2.604-1.578,4.183-3.898,4.183c-2.355,0-3.734-1.779-3.734-4.041c0-2.379,1.52-4.158,3.863-4.158    C109.085,132.651,110.415,134.477,110.415,136.668z M104.678,136.774c0,1.555,0.73,2.65,1.932,2.65    c1.214,0,1.908-1.154,1.908-2.697c0-1.426-0.683-2.65-1.92-2.65C105.385,134.077,104.678,135.231,104.678,136.774z" />
		<path d="M111.653,138.871c0.483,0.248,1.226,0.495,1.991,0.495c0.825,0,1.261-0.342,1.261-0.86c0-0.494-0.377-0.777-1.332-1.119    c-1.318-0.459-2.179-1.189-2.179-2.344c0-1.354,1.131-2.392,3.004-2.392c0.896,0,1.556,0.188,2.026,0.4l-0.4,1.449    c-0.318-0.153-0.884-0.377-1.661-0.377c-0.778,0-1.155,0.354-1.155,0.766c0,0.507,0.448,0.73,1.473,1.119    c1.402,0.519,2.063,1.249,2.063,2.368c0,1.331-1.025,2.462-3.205,2.462c-0.906,0-1.802-0.236-2.25-0.483L111.653,138.871z" />
	</g>
</g>
<g id="VuMark-DarkElements">
	<polygon id="d0000_1_" points="55.422,78.724 51.672,83.724 47.922,78.724 51.672,73.724  " />
	<polygon id="d0003_1_" points="62.922,88.724 59.172,93.724 55.422,88.724 59.172,83.724  " />
	<polygon id="d0004_1_" points="66.672,83.724 62.922,88.724 59.172,83.724 62.922,78.724  " />
	<polygon id="d0006_1_" points="70.422,78.724 66.672,83.724 62.922,78.724 66.672,73.724  " />
	<polygon id="d0008_1_" points="51.672,73.724 47.922,78.724 44.172,73.724 47.922,68.724  " />
	<polygon id="d0009_1_" points="55.422,68.724 51.672,73.724 47.922,68.724 51.672,63.724  " />
	<polygon id="d0010_1_" points="59.172,73.724 55.422,78.724 51.672,73.724 55.422,68.724  " />
	<polygon id="d0013_1_" points="70.422,68.724 66.672,73.724 62.922,68.724 66.672,63.724  " />
	<polygon id="d0016_1_" points="74.172,93.724 70.422,98.724 66.672,93.724 70.422,88.724  " />
	<polygon id="d0019_1_" points="81.672,83.724 77.922,88.724 74.172,83.724 77.922,78.724  " />
	<polygon id="d0020_1_" points="85.422,78.724 81.672,83.724 77.922,78.724 81.672,73.724  " />
	<polygon id="d0023_1_" points="77.922,78.724 74.172,83.724 70.422,78.724 74.172,73.724  " />
	<polygon id="d0025" points="85.422,68.724 81.672,73.724 77.922,68.724 81.672,63.724  " />
	<polygon id="d0027" points="92.922,68.724 89.172,73.724 85.422,68.724 89.172,63.724  " />
	<polygon id="d0030" points="44.172,53.724 40.422,58.724 36.672,53.724 40.422,48.724  " />
	<polygon id="d0032" points="51.672,63.724 47.922,68.724 44.172,63.724 47.922,58.724  " />
	<polygon id="d0033" points="51.672,53.724 47.922,58.724 44.172,53.724 47.922,48.724  " />
	<polygon id="d0035" points="59.172,63.724 55.422,68.724 51.672,63.724 55.422,58.724  " />
	<polygon id="d0037" points="62.922,58.724 59.172,63.724 55.422,58.724 59.172,53.724  " />
	<polygon id="d0040" points="70.422,58.724 66.672,63.724 62.922,58.724 66.672,53.724  " />
	<polygon id="d0042" points="77.922,58.724 74.172,63.724 70.422,58.724 74.172,53.724  " />
	<polygon id="d0045" points="89.172,63.724 85.422,68.724 81.672,63.724 85.422,58.724  " />
	<polygon id="d0046" points="92.922,58.724 89.172,63.724 85.422,58.724 89.172,53.724  " />
	<polygon id="d0047" points="96.672,63.724 92.922,68.724 89.172,63.724 92.922,58.724  " />
	<polygon id="d0049" points="74.172,53.724 70.422,58.724 66.672,53.724 70.422,48.724  " />
	<polygon id="d0050" points="81.672,53.724 77.922,58.724 74.172,53.724 77.922,48.724  " />
	<polygon id="d0051" points="89.172,53.724 85.422,58.724 81.672,53.724 85.422,48.724  " />
	<polygon id="d0052" points="96.672,53.724 92.922,58.724 89.172,53.724 92.922,48.724  " />
<polygon id="d0055" points="109.879,26.786 106.129,31.786 102.379,26.786 106.129,21.786  " />
	</g>
<g id="VuMark-BrightElements">
	<polygon id="b0001_1_" points="59.172,83.724 55.422,88.724 51.672,83.724 55.422,78.724  " style="fill:#FFFFFF;" />
	<polygon id="b0002_1_" points="62.922,78.724 59.172,83.724 55.422,78.724 59.172,73.724  " style="fill:#FFFFFF;" />
	<polygon id="b0005_1_" points="66.672,93.724 62.922,98.724 59.172,93.724 62.922,88.724  " style="fill:#FFFFFF;" />
	<polygon id="b0007_1_" points="47.922,68.724 44.172,73.724 40.422,68.724 44.172,63.724  " style="fill:#FFFFFF;" />
	<polygon id="b0011_1_" points="62.922,68.724 59.172,73.724 55.422,68.724 59.172,63.724  " style="fill:#FFFFFF;" />
	<polygon id="b0012_1_" points="66.672,73.724 62.922,78.724 59.172,73.724 62.922,68.724  " style="fill:#FFFFFF;" />
	<polygon id="b0014_1_" points="70.422,88.724 66.672,93.724 62.922,88.724 66.672,83.724  " style="fill:#FFFFFF;" />
	<polygon id="b0015_1_" points="70.422,98.724 66.672,103.724 62.922,98.724 66.672,93.724  " style="fill:#FFFFFF;" />
	<polygon id="b0017_1_" points="74.172,83.724 70.422,88.724 66.672,83.724 70.422,78.724  " style="fill:#FFFFFF;" />
	<polygon id="b0018_1_" points="77.922,88.724 74.172,93.724 70.422,88.724 74.172,83.724  " style="fill:#FFFFFF;" />
	<polygon id="b0021_1_" points="74.172,73.724 70.422,78.724 66.672,73.724 70.422,68.724  " style="fill:#FFFFFF;" />
	<polygon id="b0022_1_" points="77.922,68.724 74.172,73.724 70.422,68.724 74.172,63.724  " style="fill:#FFFFFF;" />
	<polygon id="b0024_1_" points="81.672,73.724 77.922,78.724 74.172,73.724 77.922,68.724  " style="fill:#FFFFFF;" />
	<polygon id="b0026" points="89.172,73.724 85.422,78.724 81.672,73.724 85.422,68.724  " style="fill:#FFFFFF;" />
	<polygon id="b0028" points="40.422,58.724 36.672,63.724 32.922,58.724 36.672,53.724  " style="fill:#FFFFFF;" />
	<polygon id="b0029_1_" points="44.172,63.724 40.422,68.724 36.672,63.724 40.422,58.724  " style="fill:#FFFFFF;" />
	<polygon id="b0031" points="47.922,58.724 44.172,63.724 40.422,58.724 44.172,53.724  " style="fill:#FFFFFF;" />
	<polygon id="b0034" points="55.422,58.724 51.672,63.724 47.922,58.724 51.672,53.724  " style="fill:#FFFFFF;" />
	<polygon id="b0036_1_" points="59.172,53.724 55.422,58.724 51.672,53.724 55.422,48.724  " style="fill:#FFFFFF;" />
	<polygon id="b0038" points="66.672,63.724 62.922,68.724 59.172,63.724 62.922,58.724  " style="fill:#FFFFFF;" />
	<polygon id="b0039" points="66.672,53.724 62.922,58.724 59.172,53.724 62.922,48.724  " style="fill:#FFFFFF;" />
	<polygon id="b0041" points="74.172,63.724 70.422,68.724 66.672,63.724 70.422,58.724  " style="fill:#FFFFFF;" />
	<polygon id="b0043" points="81.672,63.724 77.922,68.724 74.172,63.724 77.922,58.724  " style="fill:#FFFFFF;" />
	<polygon id="b0044" points="85.422,58.724 81.672,63.724 77.922,58.724 81.672,53.724  " style="fill:#FFFFFF;" />
	<polygon id="b0048" points="100.422,58.724 96.672,63.724 92.922,58.724 96.672,53.724  " style="fill:#FFFFFF;" />
	<polygon id="b0053" points="102.379,26.786 98.629,31.786 94.879,26.786 98.629,21.786  " style="fill:#FFFFFF;" />
	<polygon id="b0054" points="106.129,31.786 102.379,36.786 98.629,31.786 102.379,26.786  " style="fill:#FFFFFF;" />
	</g>
</svg>